<svg xmlns="http://www.w3.org/2000/svg" viewBox="0 0 521.1 256.9" role="img" aria-label="RICCA DESIGNS"><path fill="#0B0B0C" d="M336.85 0.13C331.04 0.18,323.9 0.31,320.98 0.42C318.05 0.53,312.65 0.68,308.98 0.75C301.81 0.88,295.31 1.13,290.98 1.44C286.7 1.74,280.5 2,274.29 2.13C258.11 2.46,255.92 2.85,255.04 5.49C254.43 7.34,254.87 8.3,257.66 11.06C259.44 12.84,262.78 16.57,265.98 20.38C267.62 22.33,271.88 28.57,272.79 30.38C273.15 31.07,274.56 34.5,275.24 36.31C276.22 38.91,277.27 44.86,277.6 49.69C277.77 52.16,277.77 208.68,277.6 211.2C277.36 214.77,275.79 222.14,274.88 223.97C273.76 226.24,271.53 228.95,269.79 230.18C267.67 231.67,266.65 231.47,262.64 228.77C258.43 225.93,256.23 223.72,249.39 215.38C247.42 212.98,245.02 209.61,241.04 203.69C239.22 200.97,237.73 198.84,236.54 197.25C235.29 195.58,233.37 192.73,232.25 190.88C231.02 188.84,226.88 182.48,223.9 178.06C222.61 176.14,220.43 172.88,219.07 170.83C217.71 168.78,216.26 166.66,215.86 166.13C215.45 165.6,214.19 163.77,213.06 162.05C211.92 160.34,210.5 158.32,209.88 157.56C209.27 156.81,207.55 154.61,206.07 152.69C201.5 146.77,201.45 146.71,197.21 141.76C195.61 139.9,193.92 138.22,191.01 135.59C188.8 133.59,188.47 133.2,188.38 132.46C188.27 131.5,188.88 131.01,191.18 130.21C191.87 129.97,193.19 129.46,194.11 129.09C195.03 128.72,196.21 128.25,196.72 128.06C199.96 126.85,208.41 122.17,211.84 119.68C217.11 115.87,217.68 115.38,221.86 111.17L225.18 107.81L227.73 104.01C231.01 99.13,231.32 98.59,232.11 96.46C232.46 95.48,233.01 94.13,233.31 93.46C234.1 91.7,234.44 90.61,235 88.06C235.27 86.83,235.71 85.05,235.97 84.13C236.84 81.04,237.05 79.74,237.23 76.13C237.64 67.81,237.46 63.54,236.54 59.88C236.31 58.95,235.78 56.67,235.36 54.81C233.67 47.27,231.34 41.94,226.59 34.81C222.5 28.66,219.7 25.72,212.48 20.03C206.81 15.55,198.8 11.26,191.91 9.01C190.81 8.65,189.04 8.02,187.98 7.6C186.03 6.85,183.51 6.09,181.66 5.69C181.11 5.58,179.71 5.26,178.54 5C172.38 3.6,161.51 2.62,148.1 2.25C145.59 2.18,142.89 2.1,142.1 2.07C138.84 1.93,2.67 2.22,2.09 2.37C1.3 2.57,0.67 3.12,0.41 3.84C0 5.02,-0.15 20.34,0.24 21.74C0.44 22.47,1.14 23.16,1.86 23.34C2.16 23.42,4.58 23.55,7.22 23.62C16.83 23.9,20.85 24.61,25.41 26.81C29.86 28.95,33.08 33.95,34.28 40.54C34.68 42.73,35.15 46.17,35.44 49.13C35.73 52.12,35.79 205.67,35.5 209.55C35.26 212.77,34.21 218.77,33.4 221.59C32.24 225.58,28.98 229.57,25.41 231.34C21.08 233.51,15.89 234.4,6.41 234.61C-0.15 234.76,0.22 234.24,0.04 243.69C-0.04 248.04,0.11 253,0.34 253.78C0.62 254.68,1.45 255.36,2.51 255.55C3.68 255.76,134.63 255.67,135.36 255.46C137.29 254.89,137.39 254.26,137.25 243.5L137.16 236.56L136.85 236C136.23 234.9,135.16 234.63,131.41 234.63C126.5 234.62,119.69 233.87,117.08 233.05C115.03 232.41,111.8 230.86,110.47 229.89C105.53 226.28,102.7 218.94,102.23 208.56C102.01 203.67,102.12 146.44,102.35 145.82C102.93 144.27,103.31 144.19,109.85 144.29C114.93 144.37,116.98 144.49,122.04 145C131.05 145.92,134.78 148.13,141.57 156.58C144.06 159.68,147.66 165.16,149.16 168.13C149.35 168.5,150.13 169.85,150.88 171.13C151.64 172.4,152.91 174.53,153.7 175.88C154.49 177.22,155.63 179.13,156.23 180.13C156.82 181.12,157.53 182.33,157.79 182.81C158.05 183.29,158.83 184.67,159.53 185.88C160.23 187.08,161.1 188.6,161.47 189.25C163.57 193.04,164.61 194.85,165.44 196.19C165.95 197.01,167.11 198.98,168 200.56C168.9 202.14,170.37 204.73,171.26 206.31C172.16 207.89,173.38 209.98,173.98 210.95C175.3 213.08,177.51 216.94,178.21 218.34C178.49 218.9,178.97 219.77,179.27 220.27C179.98 221.46,184.65 229.07,186.01 231.25C186.59 232.18,187.61 233.86,188.28 234.99C189.73 237.44,193.33 242.94,194.89 245.12C195.51 245.98,196.47 247.39,197.01 248.25C200.05 253.01,201.07 254.38,202.02 254.93C203.2 255.63,202.33 255.6,223.68 255.68C235.27 255.73,243.63 255.81,243.94 255.88C244.24 255.95,244.97 256.15,245.57 256.33C247.38 256.87,251.19 256.9,305.16 256.82C362.59 256.72,368.67 256.66,381.98 255.94C385.69 255.74,389.54 255.57,395.04 255.37C406.13 254.97,414.85 254.03,422.98 252.39C423.97 252.19,425.35 251.93,426.04 251.81C428.05 251.47,432.52 250.52,433.64 250.18C434.2 250.01,435.73 249.56,437.04 249.18C438.34 248.8,440.09 248.2,440.91 247.85C441.74 247.5,443.3 246.91,444.39 246.54C445.48 246.17,447 245.59,447.77 245.24C448.53 244.89,450.09 244.23,451.23 243.76C452.36 243.29,453.6 242.76,453.98 242.6C455.44 241.94,459.36 239.81,460.7 238.92C462 238.07,466.39 235.4,468.57 234.14C469.71 233.48,475.79 228.94,478.78 226.51C483.51 222.68,490.97 215.05,494.43 210.5C495.34 209.3,496.6 207.67,497.23 206.88C498.93 204.72,501.69 200.42,503.41 197.25C503.84 196.46,504.64 195.13,505.18 194.3C506.91 191.66,507.99 189.48,511.47 181.69C512.1 180.27,513.65 176.2,514.56 173.56C514.73 173.08,515.12 171.73,515.43 170.56C515.73 169.39,516.32 167.31,516.73 165.93C517.92 161.9,518.31 159.97,519.15 154.13C519.33 152.92,519.61 151.05,519.78 149.97C521.6 138.42,521.51 123.28,519.54 111.25C519.31 109.84,518.94 107.42,518.73 105.88C518.22 102.23,517.87 100.44,517.1 97.69C516.76 96.45,516.14 94.17,515.72 92.63C515.3 91.08,514.64 89,514.26 88C513.88 87,513.18 85.05,512.72 83.67C511.08 78.77,507.9 71.91,505.05 67.08C504.73 66.54,504.13 65.42,503.71 64.6C502.13 61.45,501.34 60.26,495.16 51.88C494.28 50.67,493.19 49.15,492.74 48.5C491.39 46.54,482.04 37.1,479.06 34.69C474.27 30.82,469.02 26.84,466.75 25.38C465.43 24.52,463.49 23.26,462.44 22.58C459.11 20.41,453.22 17.13,452.67 17.13C452.64 17.13,452 16.79,451.26 16.38C449.23 15.27,443.37 12.71,439.29 11.16C435.31 9.65,434.87 9.5,431.85 8.75C430.72 8.47,428.92 7.96,427.85 7.61C421.41 5.55,413.25 3.9,405.91 3.19C404.81 3.08,401.75 2.77,399.1 2.5C385.88 1.16,382.76 0.9,377.16 0.69C374.48 0.58,371.22 0.44,369.91 0.37C367.57 0.24,351.83 -0.01,348.91 0.03C348.09 0.04,342.66 0.09,336.85 0.13ZM346.39 23.76C348.03 23.43,361.55 23.87,367.84 24.45C370.16 24.66,380.94 26.44,383.41 27.01C385.38 27.47,386.71 27.84,388.82 28.51C389.7 28.79,391.23 29.24,392.23 29.52C395.05 30.29,395.68 30.54,399.36 32.31C407.46 36.2,411.49 38.98,417.4 44.75C419.44 46.74,422.35 49.96,423.62 51.63C424.06 52.21,424.79 53.17,425.24 53.75C426.88 55.91,431.33 63.3,432.95 66.56C434.39 69.46,434.93 70.67,435.54 72.38C435.79 73.1,436.47 74.93,437.05 76.45C437.62 77.97,438.34 80.11,438.65 81.2C438.96 82.29,439.5 84.03,439.85 85.06C440.59 87.25,441.36 90.29,441.73 92.5C441.87 93.36,442.18 95.05,442.41 96.25C443.4 101.41,444.12 107.14,444.48 112.88C444.62 115.18,444.79 117.74,444.86 118.56C445.07 121.06,445.14 132.42,444.99 139.06C444.7 152.29,444.22 157.88,442.71 166.13C442.29 168.36,441.82 171.09,441.66 172.19C441.18 175.34,440.77 177.13,439.92 179.69C439.48 180.99,438.84 183.18,438.48 184.55C437.87 186.9,436.84 190.02,435.7 193C434.97 194.9,431.91 201.15,430.25 204.13C424.02 215.29,414.36 224.22,404.01 228.36C402.99 228.77,401.5 229.39,400.7 229.73C398.53 230.66,393.89 231.95,389.66 232.8C382.17 234.3,368.14 234.27,362.41 232.75C354.49 230.65,348.69 226.68,346.87 222.12C345.52 218.76,344.66 213.35,344.35 206.38C344.08 200.26,344.23 25.95,344.51 25.26C344.87 24.35,345.36 23.96,346.39 23.76ZM104.27 25.75C104.99 25.59,121.22 25.7,122.91 25.86C134.54 27.02,136.89 27.44,143.54 29.53C153.01 32.51,160.35 38.7,163.52 46.39C166.14 52.72,166.98 55.95,167.6 62.04C167.74 63.36,167.91 64.92,167.99 65.5C168.83 72.21,167.67 86.69,165.82 92.5C163.47 99.89,160.39 105.28,155.85 109.92C153.23 112.6,151.27 113.97,146.85 116.17C143.42 117.88,140.37 118.71,133.22 119.87C128.28 120.68,117.17 121.22,107.97 121.1C103.24 121.04,102.8 120.9,102.32 119.34C102.1 118.6,102.1 28.21,102.33 27.42C102.6 26.48,103.18 25.98,104.27 25.75Z"/></svg>
